<svg xmlns="http://www.w3.org/2000/svg" width="1600" height="1100" viewBox="0 0 1600 1100"><defs><linearGradient id="sky" x2="0" y2="1"><stop stop-color="#a3c3c0"/><stop offset="1" stop-color="#e5e8cd"/></linearGradient><linearGradient id="hill" x2="0" y2="1"><stop stop-color="#819a76"/><stop offset="1" stop-color="#2d5847"/></linearGradient></defs><path fill="url(#sky)" d="M0 0h1600v1100H0z"/><circle cx="1130" cy="280" r="120" fill="#f5edc9"/><path fill="#97ad95" d="M0 670 330 320 650 700 1100 390 1600 630v470H0z"/><path fill="url(#hill)" d="M0 850 500 500 970 890 1400 550 1600 730v370H0z"/><path fill="#163f35" d="M0 940q400-250 770 0t830-40v200H0z"/><path fill="#f1dcb2" opacity=".75" d="M740 1100q-150-100 30-170t30-110q220 40 65 140t-10 140z"/></svg>
